<?xml version="1.0" encoding="utf-8"?>
<!-- Generator: Adobe Illustrator 24.3.0, SVG Export Plug-In . SVG Version: 6.00 Build 0)  -->
<svg version="1.1" id="Layer_1" xmlns="http://www.w3.org/2000/svg" xmlns:xlink="http://www.w3.org/1999/xlink" x="0px" y="0px"
	 viewBox="0 0 1453.26 1443.62" style="enable-background:new 0 0 1453.26 1443.62;" xml:space="preserve">
<style type="text/css">
	.st0{fill:#0071CE;}
</style>
<g>
	<path class="st0" d="M1238.2,959.67V791.75c0-3.68-2.99-6.67-6.67-6.67h-31.14c-3.68,0-6.67,2.99-6.67,6.67v167.92h-25.61
		c-11.89,0-17.84,14.38-9.44,22.78l47.85,47.86c5.21,5.21,13.66,5.21,18.87,0l47.85-47.86c8.41-8.41,2.45-22.78-9.44-22.78H1238.2z"
		/>
</g>
<g>
	<path class="st0" d="M191.19,174.59V6.67c0-3.68-2.99-6.67-6.67-6.67h-31.14c-3.68,0-6.67,2.99-6.67,6.67v167.92H121.1
		c-11.89,0-17.84,14.38-9.44,22.78l47.85,47.86c5.21,5.21,13.66,5.21,18.87,0l47.85-47.86c8.41-8.41,2.45-22.78-9.44-22.78H191.19z"
		/>
</g>
<g>
	<path class="st0" d="M301.69,392.81h-36.2v-39.22c0-5-4.05-9.05-9.05-9.05h-30.17c-5,0-9.05,4.05-9.05,9.05v39.22h-96.54v-39.22
		c0-5-4.05-9.05-9.05-9.05H81.46c-5,0-9.05,4.05-9.05,9.05v39.22H36.2c-19.99,0-36.2,16.21-36.2,36.2V694.5
		c0,19.99,16.21,36.2,36.2,36.2h265.49c19.99,0,36.2-16.21,36.2-36.2V429.01C337.9,409.02,321.69,392.81,301.69,392.81z
		 M297.17,694.5H40.73c-2.5,0-4.53-2.03-4.53-4.53V465.21h265.49v224.76C301.69,692.48,299.67,694.5,297.17,694.5z M257.59,542.9
		L150.25,649.37c-3.55,3.52-9.28,3.5-12.8-0.05l-56.64-57.09c-3.52-3.55-3.5-9.28,0.05-12.8l17.14-17c3.55-3.52,9.28-3.5,12.8,0.05
		l33.26,33.53l83.77-83.1c3.55-3.52,9.28-3.5,12.8,0.05l17,17.13C261.16,533.65,261.14,539.38,257.59,542.9L257.59,542.9z"/>
</g>
<g>
	<path class="st0" d="M742.47,515.38H574.55c-3.68,0-6.67,2.99-6.67,6.67v31.14c0,3.68,2.99,6.67,6.67,6.67h167.92v25.61
		c0,11.89,14.38,17.84,22.78,9.44l47.86-47.85c5.21-5.21,5.21-13.66,0-18.87l-47.86-47.86c-8.41-8.41-22.78-2.45-22.78,9.44V515.38z
		"/>
</g>
<g>
	<path class="st0" d="M1119.44,496.25c-15.26,0-27.58,12.33-27.58,27.58c0,15.26,12.33,27.58,27.58,27.58s27.58-12.33,27.58-27.58
		C1147.03,508.57,1134.7,496.25,1119.44,496.25z M1215.98,496.25c-15.26,0-27.58,12.33-27.58,27.58c0,15.26,12.33,27.58,27.58,27.58
		s27.58-12.33,27.58-27.58C1243.57,508.57,1231.24,496.25,1215.98,496.25z M1312.53,496.25c-15.26,0-27.58,12.33-27.58,27.58
		c0,15.26,12.33,27.58,27.58,27.58c15.26,0,27.58-12.33,27.58-27.58C1340.11,508.57,1327.78,496.25,1312.53,496.25z M1215.98,344.54
		c-121.88,0-220.67,80.25-220.67,179.29c0,41.03,17.15,78.61,45.6,108.87c-12.84,33.96-39.57,62.75-40,63.1
		c-5.69,6.03-7.24,14.83-3.97,22.41s10.77,12.5,19.05,12.5c53.01,0,94.82-22.15,119.9-39.91c24.91,7.84,51.81,12.33,80.08,12.33
		c121.88,0,220.67-80.25,220.67-179.29S1337.87,344.54,1215.98,344.54z M1215.98,661.75c-23.01,0-45.77-3.53-67.58-10.43
		l-19.57-6.21l-16.81,11.9c-12.33,8.71-29.22,18.45-49.56,25c6.29-10.43,12.41-22.15,17.15-34.65l9.14-24.22L1071,604.34
		c-15.6-16.64-34.31-44.13-34.31-80.51c0-76.03,80.42-137.92,179.29-137.92s179.29,61.89,179.29,137.92
		S1314.85,661.75,1215.98,661.75z"/>
</g>
<g>
	<path class="st0" d="M1129.37,1281.77c44.78,0,81.02-36.24,81.02-81.02s-36.24-81.02-81.02-81.02s-81.02,36.24-81.02,81.02
		S1084.6,1281.77,1129.37,1281.77z M1184.74,1304.74h-6c-15.05,7.23-31.76,11.57-49.55,11.57s-34.43-4.34-49.55-11.57h-6
		c-46.02,0-83.33,37.31-83.33,83.33v20.83c0,19.18,15.55,34.72,34.72,34.72h208.33c19.18,0,34.72-15.55,34.72-34.72v-20.83
		C1268.08,1342.04,1230.77,1304.74,1184.74,1304.74z M1337.7,1281.77c38.34,0,69.44-31.1,69.44-69.44s-31.1-69.44-69.44-69.44
		s-69.44,31.1-69.44,69.44S1299.36,1281.77,1337.7,1281.77z M1372.24,1304.74h-2.75c-10.05,3.47-20.69,5.79-31.97,5.79
		s-21.92-2.31-31.97-5.79h-2.75c-14.76,0-28.36,4.27-40.29,11.14c17.65,19.02,28.72,44.27,28.72,72.19v27.78
		c0,1.59-0.36,3.11-0.43,4.63h127.75c19.01,0,34.62-15.28,34.72-34.29C1453.49,1341.21,1417.16,1304.74,1372.24,1304.74z"/>
</g>
</svg>
